<?xml version="1.0" encoding="utf-8"?>
<svg xmlns="http://www.w3.org/2000/svg"
	xmlns:xlink="http://www.w3.org/1999/xlink"
	width="92px" height="92px" viewBox="0 0 92 92">
<path fillRule="evenodd" d="M 46 92C 20.63 92-0 71.37-0 46-0 20.64 20.63 0 46 0 71.36 0 92 20.64 92 46 92 71.37 71.36 92 46 92ZM 46 3.12C 22.35 3.12 3.12 22.36 3.12 46 3.12 69.65 22.35 88.88 46 88.88 69.64 88.88 88.88 69.65 88.88 46 88.88 22.36 69.64 3.12 46 3.12ZM 47.76 56.56C 47.15 57.18 46.16 57.18 45.56 56.56 45.56 56.56 30.3 41.33 30.3 41.33 30 41.03 29.85 40.63 29.85 40.23 29.85 39.83 30 39.43 30.3 39.12 30.91 38.52 31.9 38.52 32.51 39.12 32.51 39.12 46.66 53.26 46.66 53.26 46.66 53.26 60.81 39.12 60.81 39.12 61.42 38.52 62.41 38.52 63.01 39.12 63.62 39.73 63.62 40.72 63.01 41.33 63.01 41.33 47.76 56.56 47.76 56.56Z" fill="rgb(255,255,255)" opacity="0.50"/></svg>