<?xml version="1.0" encoding="utf-8"?>
<svg xmlns="http://www.w3.org/2000/svg"
	xmlns:xlink="http://www.w3.org/1999/xlink"
	width="25px" height="17px" viewBox="0 0 25 17">
<path fillRule="evenodd" d="M 10.15 7.53C 10.15 7.53 12.42 7.35 12.42 4.52 12.42 1.68 10.57 0.3 8.22 0.3 8.22 0.3 0.49 0.3 0.49 0.3 0.49 0.3 0.49 16.13 0.49 16.13 0.49 16.13 8.22 16.13 8.22 16.13 8.22 16.13 12.94 16.29 12.94 11.46 12.94 11.46 13.14 7.53 10.15 7.53ZM 3.89 3.11C 3.89 3.11 8.22 3.11 8.22 3.11 8.22 3.11 9.27 3.11 9.27 4.76 9.27 6.41 8.65 6.65 7.95 6.65 7.95 6.65 3.89 6.65 3.89 6.65 3.89 6.65 3.89 3.11 3.89 3.11ZM 8 13.32C 8 13.32 3.89 13.32 3.89 13.32 3.89 13.32 3.89 9.09 3.89 9.09 3.89 9.09 8.22 9.09 8.22 9.09 8.22 9.09 9.78 9.07 9.78 11.26 9.78 13.11 8.61 13.31 8 13.32ZM 19.23 4.33C 13.52 4.33 13.52 10.41 13.52 10.41 13.52 10.41 13.13 16.46 19.23 16.46 19.23 16.46 24.31 16.77 24.31 12.25 24.31 12.25 21.7 12.25 21.7 12.25 21.7 12.25 21.78 13.95 19.32 13.95 19.32 13.95 16.7 14.14 16.7 11.2 16.7 11.2 24.4 11.2 24.4 11.2 24.4 11.2 25.24 4.33 19.23 4.33ZM 21.55 9.09C 21.55 9.09 16.67 9.09 16.67 9.09 16.67 9.09 16.99 6.65 19.29 6.65 21.58 6.65 21.55 9.09 21.55 9.09ZM 22.16 1.23C 22.16 1.23 16.03 1.23 16.03 1.23 16.03 1.23 16.03 3.18 16.03 3.18 16.03 3.18 22.16 3.18 22.16 3.18 22.16 3.18 22.16 1.23 22.16 1.23 22.16 1.23 22.16 1.23 22.16 1.23Z" fill="rgb(255,255,255)"/></svg>