<?xml version="1.0" encoding="utf-8"?>
<svg xmlns="http://www.w3.org/2000/svg"
	xmlns:xlink="http://www.w3.org/1999/xlink"
	width="116px" height="116px" viewBox="0 0 116 116">
<path fillRule="evenodd" d="M 58-0C 25.97-0-0 25.97-0 58-0 90.03 25.97 116 58 116 90.03 116 116 90.03 116 58 116 25.97 90.03-0 58-0ZM 51.15 74.66C 51.15 74.66 50.75 74.26 50.75 74.26 50.75 74.26 50.35 74.66 50.35 74.66 50.35 74.66 34.09 58.4 34.09 58.4 34.09 58.4 36.65 55.84 36.65 55.84 36.65 55.84 50.75 69.94 50.75 69.94 50.75 69.94 79.35 41.34 79.35 41.34 79.35 41.34 81.91 43.9 81.91 43.9 81.91 43.9 51.15 74.66 51.15 74.66Z" fill="rgb(0,83,147)"/></svg>