<?xml version="1.0" encoding="utf-8"?>
<svg xmlns="http://www.w3.org/2000/svg"
	xmlns:xlink="http://www.w3.org/1999/xlink"
	width="14px" height="25px" viewBox="0 0 14 25">
<path fillRule="evenodd" d="M 3.79 13.33C 3.79 13.33 3.79 24.07 3.79 24.07 3.79 24.07 9.14 24.07 9.14 24.07 9.14 24.07 9.14 13.38 9.14 13.38 9.14 13.38 12.8 13.38 12.8 13.38 12.8 13.38 13.68 8.93 13.68 8.93 13.68 8.93 9.18 8.93 9.18 8.93 9.18 8.93 9.18 6.83 9.18 5.66 9.18 5.21 9.43 4.61 10.18 4.61 11.33 4.61 12.78 4.61 12.78 4.61 12.78 4.61 12.78 0.07 12.78 0.07 12.78 0.07 10.43 0.07 7.92 0.07 6.25 0.07 3.77 2.08 3.77 4.22 3.77 6.43 3.77 8.8 3.77 8.8 3.77 8.8 0.97 8.8 0.97 8.8 0.97 8.8 0.97 13.31 0.97 13.31 0.97 13.31 3.79 13.33 3.79 13.33Z" fill="rgb(255,255,255)"/></svg>