<?xml version="1.0" encoding="utf-8"?>
<svg xmlns="http://www.w3.org/2000/svg"
	xmlns:xlink="http://www.w3.org/1999/xlink"
	width="75px" height="132px" viewBox="0 0 75 132">
<path fillRule="evenodd" d="M 65.36 0C 65.36 0 9.64 0 9.64 0 4.31 0 0 4.31 0 9.62 0 9.62 0 122.39 0 122.39 0 127.69 4.31 132 9.64 132 9.64 132 65.36 132 65.36 132 70.68 132 75 127.69 75 122.39 75 122.39 75 9.62 75 9.62 75 4.31 70.69 0 65.36 0ZM 23.74 5.84C 23.74 5.84 51.26 5.84 51.26 5.84 51.95 5.84 52.51 6.88 52.51 8.16 52.51 9.44 51.95 10.48 51.26 10.48 51.26 10.48 23.74 10.48 23.74 10.48 23.05 10.48 22.5 9.44 22.5 8.16 22.5 6.88 23.05 5.84 23.74 5.84ZM 37.5 122.51C 34.11 122.51 31.35 119.76 31.35 116.37 31.35 112.98 34.11 110.24 37.5 110.24 40.89 110.24 43.65 112.99 43.65 116.37 43.65 119.76 40.89 122.51 37.5 122.51ZM 67.78 101.49C 67.78 101.49 7.23 101.49 7.23 101.49 7.23 101.49 7.23 16.22 7.23 16.22 7.23 16.22 67.78 16.22 67.78 16.22 67.78 16.22 67.78 101.49 67.78 101.49Z" fill="rgb(0,83,147)"/></svg>