<?xml version="1.0" encoding="utf-8"?>
<svg xmlns="http://www.w3.org/2000/svg"
	xmlns:xlink="http://www.w3.org/1999/xlink"
	width="41px" height="41px" viewBox="0 0 41 41">
<path fillRule="evenodd" d="M 40.24 0.73C 39.24-0.27 37.61-0.27 36.6 0.73 36.6 0.73 31.39 5.95 31.39 5.95 29.25 4.53 26.8 3.83 24.33 3.83 21.05 3.83 17.67 5.08 15.27 7.58 15.27 7.58 7.58 15.27 7.58 15.27 3.19 19.65 2.65 26.43 5.95 31.4 5.95 31.4 0.73 36.62 0.73 36.62-0.27 37.63-0.27 39.25 0.73 40.25 1.23 40.75 1.89 41 2.54 41 3.2 41 3.85 40.75 4.36 40.25 4.36 40.25 9.57 35.03 9.57 35.03 11.71 36.45 14.18 37.16 16.64 37.16 19.81 37.16 23.2 35.9 25.7 33.4 25.7 33.4 33.38 25.71 33.38 25.71 37.77 21.33 38.31 14.55 35.01 9.58 35.01 9.58 40.24 4.36 40.24 4.36 41.25 3.35 41.25 1.73 40.24 0.73ZM 32.01 16.64C 32.01 18.7 31.21 20.63 29.75 22.08 29.75 22.08 22.08 29.77 22.08 29.77 20.62 31.23 18.59 32.03 16.64 32.03 15.48 32.03 14.37 31.74 13.35 31.26 13.35 31.26 17.07 27.43 17.07 27.43 18.07 26.43 18.07 24.81 17.07 23.81 16.17 22.8 14.55 22.8 13.55 23.81 13.55 23.81 9.72 27.63 9.72 27.63 9.23 26.61 8.95 25.5 8.95 24.34 8.95 22.28 9.75 20.35 11.2 18.9 11.2 18.9 18.79 11.21 18.79 11.21 20.24 9.75 22.28 8.95 24.33 8.95 25.49 8.95 26.6 9.24 27.62 9.72 27.62 9.72 23.72 13.63 23.72 13.63 22.72 14.63 22.72 16.25 23.72 17.26 24.22 17.76 24.88 18.01 25.53 18.01 26.18 18.01 26.84 17.76 27.34 17.26 27.34 17.26 31.24 13.35 31.24 13.35 31.73 14.37 32.01 15.48 32.01 16.64Z" fill="rgb(255,255,255)" opacity="0.90"/></svg>