<?xml version="1.0" encoding="utf-8"?>
<svg xmlns="http://www.w3.org/2000/svg"
	xmlns:xlink="http://www.w3.org/1999/xlink"
	width="24px" height="25px" viewBox="0 0 24 25">
<path fillRule="evenodd" d="M 5.43 3.11C 5.43 4.55 4.38 5.71 2.66 5.71 1.04 5.71-0.01 4.55-0.01 3.11-0.01 1.64 1.07 0.51 2.73 0.51 4.38 0.51 5.39 1.64 5.43 3.11ZM 0.13 24.49C 0.13 24.49 0.13 7.76 0.13 7.76 0.13 7.76 5.26 7.76 5.26 7.76 5.26 7.76 5.26 24.49 5.26 24.49 5.26 24.49 0.13 24.49 0.13 24.49ZM 8.33 13.1C 8.33 11.01 8.26 9.27 8.19 7.76 8.19 7.76 12.65 7.76 12.65 7.76 12.65 7.76 12.89 10.09 12.89 10.09 12.89 10.09 12.99 10.09 12.99 10.09 13.66 8.99 15.32 7.39 18.09 7.39 21.46 7.39 23.99 9.68 23.99 14.61 23.99 14.61 23.99 24.49 23.99 24.49 23.99 24.49 18.86 24.49 18.86 24.49 18.86 24.49 18.86 15.22 18.86 15.22 18.86 13.07 18.12 11.6 16.26 11.6 14.84 11.6 14 12.59 13.63 13.55 13.49 13.89 13.46 14.37 13.46 14.84 13.46 14.84 13.46 24.49 13.46 24.49 13.46 24.49 8.33 24.49 8.33 24.49 8.33 24.49 8.33 13.1 8.33 13.1Z" fill="rgb(255,255,255)"/></svg>