<?xml version="1.0" encoding="utf-8"?>
<svg xmlns="http://www.w3.org/2000/svg"
	xmlns:xlink="http://www.w3.org/1999/xlink"
	width="192px" height="149px" viewBox="0 0 192 149">
<path fillRule="evenodd" d="M 141.46 146.78C 141.46 146.78 141.46 63.13 141.46 63.13 141.46 63.13 191.97 63.13 191.97 63.13 191.97 63.13 191.97 146.78 191.97 146.78 191.97 146.78 141.46 146.78 141.46 146.78ZM 167.36 143.17C 168.96 143.17 170.27 141.88 170.27 140.3 170.27 138.72 168.96 137.43 167.36 137.43 165.75 137.43 164.44 138.72 164.44 140.3 164.44 141.88 165.75 143.17 167.36 143.17ZM 167.84 66.6C 167.16 66.6 166.61 67.13 166.61 67.8 166.61 68.46 167.16 69 167.84 69 168.51 69 169.05 68.46 169.05 67.8 169.05 67.13 168.51 66.6 167.84 66.6ZM 175.1 70.61C 175.1 70.61 160.57 70.61 160.57 70.61 160.57 70.61 160.57 71.76 160.57 71.76 160.57 71.76 175.1 71.76 175.1 71.76 175.1 71.76 175.1 70.61 175.1 70.61ZM 183.87 75.87C 183.87 75.87 149.56 75.87 149.56 75.87 149.56 75.87 149.56 133.39 149.56 133.39 156.07 133.44 170.75 133.4 183.87 133.32 183.87 133.32 183.87 75.87 183.87 75.87ZM 157.78 10.92C 157.78 10.92 37.25 10.92 37.25 10.92 37.25 10.92 37.25 32.69 37.25 32.69 37.25 32.69 26.63 32.69 26.63 32.69 26.63 32.69 26.63 0.47 26.63 0.47 26.63 0.47 168.4 0.47 168.4 0.47 168.4 0.47 168.4 59.08 168.4 59.08 168.4 59.08 157.78 59.08 157.78 59.08 157.78 59.08 157.78 10.92 157.78 10.92ZM 75.26 148.52C 75.26 148.52 0.05 148.52 0.05 148.52 0.05 148.52 0.05 37.44 0.05 37.44 0.05 37.44 75.26 37.44 75.26 37.44 75.26 37.44 75.26 148.52 75.26 148.52ZM 39.24 142.95C 41.25 142.95 42.87 141.34 42.87 139.38 42.87 137.41 41.25 135.81 39.24 135.81 37.24 135.81 35.62 137.41 35.62 139.38 35.62 141.34 37.24 142.95 39.24 142.95ZM 10.93 48.15C 10.93 48.15 10.93 130.1 10.93 130.1 10.93 130.1 64.39 130.1 64.39 130.1 64.39 130.1 64.39 48.15 64.39 48.15 64.39 48.15 10.93 48.15 10.93 48.15ZM 135.97 92.5C 135.97 92.5 80.11 92.5 80.11 92.5 80.11 92.5 80.11 82.05 80.11 82.05 80.11 82.05 135.97 82.05 135.97 82.05 135.97 82.05 135.97 92.5 135.97 92.5ZM 99.52 96.78C 99.52 96.78 135.97 96.78 135.97 96.78 135.97 96.78 135.97 111.62 135.97 111.62 135.97 111.62 80.11 111.62 80.11 111.62 80.11 111.62 80.11 105.89 80.11 105.89 80.11 105.89 117.55 105.89 117.55 105.89 117.55 105.89 117.55 103.12 117.55 103.12 117.55 103.12 80.11 103.12 80.11 103.12 80.11 103.12 80.11 96.78 80.11 96.78 80.11 96.78 95.48 96.78 95.48 96.78 95.48 96.78 99.52 96.78 99.52 96.78Z" fill="rgb(0,83,147)"/></svg>