<?xml version="1.0" encoding="utf-8"?>
<svg xmlns="http://www.w3.org/2000/svg"
	xmlns:xlink="http://www.w3.org/1999/xlink"
	width="25px" height="20px" viewBox="0 0 25 20">
<path fillRule="evenodd" d="M 24.49 2.63C 23.61 3.02 22.66 3.28 21.66 3.4 22.68 2.79 23.46 1.83 23.83 0.68 22.88 1.24 21.82 1.65 20.7 1.87 19.8 0.92 18.52 0.32 17.11 0.32 14.39 0.32 12.18 2.52 12.18 5.24 12.18 5.63 12.23 6 12.31 6.36 8.22 6.16 4.59 4.2 2.16 1.22 1.74 1.95 1.5 2.79 1.5 3.7 1.5 5.4 2.37 6.91 3.69 7.79 2.88 7.77 2.12 7.55 1.46 7.18 1.46 7.2 1.46 7.22 1.46 7.24 1.46 9.62 3.15 11.61 5.41 12.07 4.99 12.18 4.56 12.24 4.11 12.24 3.79 12.24 3.48 12.21 3.18 12.15 3.81 14.11 5.63 15.53 7.78 15.57 6.1 16.89 3.97 17.68 1.67 17.68 1.27 17.68 0.88 17.65 0.49 17.61 2.67 19 5.26 19.82 8.04 19.82 17.1 19.82 22.05 12.32 22.05 5.81 22.05 5.6 22.04 5.39 22.04 5.18 23 4.48 23.83 3.61 24.49 2.63Z" fill="rgb(255,255,255)"/></svg>