<?xml version="1.0" encoding="utf-8"?>
<svg xmlns="http://www.w3.org/2000/svg"
	xmlns:xlink="http://www.w3.org/1999/xlink"
	width="25px" height="22px" viewBox="0 0 25 22">
<path fillRule="evenodd" d="M 0.7 6.47C 0.7 6.47 1.68 7.76 1.68 7.76 1.68 7.76 3.71 6.16 4.39 6.96 5.07 7.76 7.65 17.45 8.51 19.24 9.27 20.8 11.34 22.87 13.62 21.39 15.9 19.92 23.47 13.44 24.83 5.79 26.18-1.86 15.71-0.26 14.61 6.41 17.38 4.74 18.86 7.08 17.44 9.74 16.02 12.39 14.73 14.12 14.05 14.12 13.38 14.12 12.86 12.34 12.08 9.24 11.28 6.04 11.29 0.26 7.96 0.92 4.82 1.53 0.7 6.47 0.7 6.47Z" fill="rgb(255,255,255)"/></svg>